<svg width="512" height="512" viewBox="0 0 512 512" fill="none" xmlns="http://www.w3.org/2000/svg">
<rect width="512" height="512" rx="20" fill="url(#paint0_linear_1_2)"/>
<g opacity="0.8" filter="url(#filter0_f_1_2)">
<rect x="80" y="100" width="352" height="200" rx="12" fill="url(#paint1_linear_1_2)"/>
</g>
<rect x="100" y="120" width="312" height="160" rx="8" fill="rgba(255,255,255,0.1)"/>
<rect x="115" y="135" width="282" height="10" rx="3" fill="rgba(255,255,255,0.3)"/>
<rect x="115" y="155" width="180" height="8" rx="3" fill="rgba(255,255,255,0.2)"/>
<g opacity="0.7">
<rect x="140" y="210" width="80" height="40" rx="6" fill="url(#paint2_linear_1_2)"/>
<rect x="240" y="210" width="132" height="40" rx="6" fill="rgba(0,0,0,0.2)"/>
</g>
<g opacity="0.9">
<rect x="100" y="300" width="140" height="92" rx="8" fill="rgba(255,255,255,0.1)"/>
<rect x="115" y="315" width="110" height="8" rx="3" fill="rgba(255,255,255,0.3)"/>
<rect x="115" y="333" width="70" height="6" rx="2" fill="rgba(255,255,255,0.2)"/>
<rect x="260" y="300" width="152" height="92" rx="8" fill="rgba(255,255,255,0.1)"/>
<rect x="275" y="315" width="122" height="8" rx="3" fill="rgba(255,255,255,0.3)"/>
<rect x="275" y="333" width="80" height="6" rx="2" fill="rgba(255,255,255,0.2)"/>
</g>
<defs>
<filter id="filter0_f_1_2" x="40" y="60" width="432" height="280" filterUnits="userSpaceOnUse" color-interpolation-filters="sRGB">
<feFlood flood-opacity="0" result="BackgroundImageFix"/>
<feBlend mode="normal" in="SourceGraphic" in2="BackgroundImageFix" result="shape"/>
<feGaussianBlur stdDeviation="20" result="effect1_foregroundBlur_1_2"/>
</filter>
<linearGradient id="paint0_linear_1_2" x1="0" y1="0" x2="512" y2="512" gradientUnits="userSpaceOnUse">
<stop stop-color="#1E40AF"/>
<stop offset="1" stop-color="#1D4ED8"/>
</linearGradient>
<linearGradient id="paint1_linear_1_2" x1="80" y1="100" x2="432" y2="300" gradientUnits="userSpaceOnUse">
<stop stop-color="#3B82F6"/>
<stop offset="1" stop-color="#2563EB"/>
</linearGradient>
<linearGradient id="paint2_linear_1_2" x1="140" y1="210" x2="220" y2="250" gradientUnits="userSpaceOnUse">
<stop stop-color="#10B981"/>
<stop offset="1" stop-color="#059669"/>
</linearGradient>
</defs>
</svg>
